<?xml version="1.0" ?>
<!-- Uploaded to: SVG Repo, www.svgrepo.com, Generator: SVG Repo Mixer Tools -->
<svg fill="#000000" width="800px" height="800px" viewBox="0 0 108 108" id="Layeri" xmlns="http://www.w3.org/2000/svg">
<title/>
<g id="Line">
<path d="M54,70.3l0,.12v0q0,.31-.12.63l0,.12a14.24,14.24,0,0,0,.39-2.28Z"/>
<path d="M105.13,34.15l-4,0a33.71,33.71,0,0,0-7-15.12,7.5,7.5,0,0,1-1.91,3.4c-1.46,1.36-3.53,1.72-5.36,2-1.34.23-2.73.47-3.32,1s-1,2.24-1.36,3.68l.2,1.11a17.76,17.76,0,0,1-3.66,24c-.48-1.31-1-2.58-1.62-3.84A13.82,13.82,0,1,0,57.61,30.83a37.3,37.3,0,0,0-3.85-1.63,17.8,17.8,0,0,1,25-2.83,8.05,8.05,0,0,1,2-3.82c1.46-1.36,3.53-1.72,5.36-2,1.34-.23,2.73-.47,3.32-1s.92-1.93,1.25-3.25c0-.23.11-.46.17-.69A33.92,33.92,0,0,0,36.52,26.83a38.35,38.35,0,0,0-4.52.65,37.93,37.93,0,0,1,73.12,6.67Z"/>
<path d="M105.17,46.1A38.28,38.28,0,0,1,80.52,76c.21-1.07.38-2.15.51-3.26l.07-.07.08-1.21a34.23,34.23,0,0,0,20-25.41Z"/>
<rect height="3.58" transform="translate(-20.53 22.83) rotate(-33.7)" width="0.99" x="26.93" y="43.53"/>
<rect height="0.99" transform="translate(-19.95 68.4) rotate(-50.72)" width="3.58" x="60.39" y="54.75"/>
<rect height="0.99" transform="translate(-2.14 120) rotate(-83.5)" width="3.58" x="64.36" y="60.7"/>
<rect height="3.58" transform="translate(-6.55 9.11) rotate(-8.76)" width="0.99" x="55.73" y="45.51"/>
<rect height="3.58" transform="translate(-12.9 60.7) rotate(-60.78)" width="0.99" x="44.8" y="39.56"/>
<rect height="0.99" transform="translate(-11.33 12.5) rotate(-16.92)" width="3.58" x="34.57" y="43.83"/>
<rect height="0.99" transform="translate(-15.94 7.3) rotate(-18.44)" width="6.28" x="11.38" y="52.27"/>
<path d="M39.84,30.67C19.22,30.67,2,48.12,2.38,69.16c0,.27,0,.53,0,.77a37.76,37.76,0,0,0,37.44,35.69A37.75,37.75,0,0,0,77.22,70.83h0C78.55,49.11,61,30.67,39.84,30.67Zm-.17,71.09A33.54,33.54,0,0,1,6.32,71.5,6.68,6.68,0,0,1,7.9,69.25c.4-.38,1.91-1.78,3.58-1.63,1.37.13,2.09,1.22,3,2.11,1.28,1.19,3.53,2.5,7.69,2.69h0A18.27,18.27,0,0,0,34.14,85.27V80.94a13.93,13.93,0,1,1,11.91-.22V85c5.72-2.32,9.39-7.57,10.83-12.41a24.46,24.46,0,0,0,4-2.82c1.5-1.31,2-2.1,3-2.1s1.55.81,3,2.11c.77.68,3,2.56,4.1,2.86a9.46,9.46,0,0,0,1.75.27h0A33.43,33.43,0,0,1,39.67,101.76Zm32.9-32.62c-.41.14-.74-.76-2.8-2.47-2.38-2-3.84-3.13-5.7-3.13-2.21,0-4,1.59-5.69,3.13l-.67.6a17.87,17.87,0,0,0-6.64-13l1.67-2L52,51.56l-1.68,2.05a17.93,17.93,0,0,0-26.53,6.51l-2.41-4.4-.87.48,2.77,5.05A17.59,17.59,0,0,0,21.87,68a6.5,6.5,0,0,1-.91.61,1.57,1.57,0,0,1-.23.11,1,1,0,0,1-.37.09c-1.06,0-3-2.11-3-2.11a9,9,0,0,0-6.54-3c-.7,0-2.48.32-4.43,2.67A33.58,33.58,0,0,1,28.26,36.7l4.92,1.64.32-.93-3.7-1.23A33.48,33.48,0,0,1,54.61,38.1L52,39.41l.44.89,3.28-1.64a33,33,0,0,1,12.73,12.1C73.2,58.9,73.84,68.69,72.57,69.14Z"/>
<circle cx="58.96" cy="10.32" r="0.99"/>
<circle cx="46.55" cy="23.73" r="1.49"/>
<circle cx="71.87" cy="17.27" r="1.99"/>
<circle cx="83.29" cy="13.8" r="0.5"/>
<circle cx="54.99" cy="20.25" r="1.99"/>
<circle cx="72.86" cy="10.32" r="0.99"/>
<circle cx="62.93" cy="17.27" r="0.99"/>
<rect height="3.97" rx="1.98" ry="1.98" width="3.97" x="38.11" y="81.8"/>
<rect height="3.97" rx="1.98" ry="1.98" transform="matrix(1, 0.01, -0.01, 1, 0.43, -1.09)" width="3.97" x="101.65" y="38.12"/>
</g>
</svg>