<?xml version="1.0" ?>

<!DOCTYPE svg  PUBLIC '-//W3C//DTD SVG 1.1//EN'  'http://www.w3.org/Graphics/SVG/1.1/DTD/svg11.dtd'>

<!-- Uploaded to: SVG Repo, www.svgrepo.com, Generator: SVG Repo Mixer Tools -->
<svg fill="#000000" width="800px" height="800px" viewBox="0 0 512 512" version="1.1" xml:space="preserve" xmlns="http://www.w3.org/2000/svg" xmlns:xlink="http://www.w3.org/1999/xlink">

<g id="_x33_60_x2C__resume_x2C__storage_x2C__print_x2C__cv_x2C__document">

<g>

<path d="M327.236,154.33v157.733c0,1.886-1.523,3.412-3.412,3.412H55.657    c-1.888,0-3.415-1.526-3.415-3.412V154.33c0-1.887,1.527-3.412,3.415-3.412h268.167    C325.713,150.918,327.236,152.443,327.236,154.33 M190.06,336.864c2.664,0,5.103,1.081,6.878,2.857    c1.748,1.747,2.857,4.188,2.857,6.852c0,2.69-1.109,5.132-2.857,6.88l-0.249,0.25c-1.748,1.609-4.078,2.607-6.629,2.607    c-2.664,0-5.106-1.082-6.854-2.857l-0.249-0.277c-1.607-1.721-2.608-4.051-2.608-6.603c0-2.663,1.084-5.077,2.857-6.852    l0.084-0.084C185.066,337.918,187.453,336.864,190.06,336.864z M320.414,308.651V157.742H59.068v150.909H320.414z     M221.796,367.435h-63.473l-12.54,47.687h88.576L221.796,367.435z M278.415,421.945h-176.71v13.454h176.71V421.945z     M192.113,344.52c-0.502-0.527-1.25-0.831-2.053-0.831c-0.776,0-1.527,0.333-2.025,0.831c-0.526,0.527-0.86,1.277-0.86,2.054    c0,0.749,0.277,1.442,0.719,1.941l0.141,0.111c0.498,0.527,1.249,0.86,2.025,0.86c0.748,0,1.414-0.277,1.913-0.722l0.141-0.139    c0.526-0.499,0.859-1.248,0.859-2.053C192.973,345.797,192.64,345.047,192.113,344.52z M386.88,86.254    c-1.885,0-3.411-1.525-3.411-3.412s1.526-3.412,3.411-3.412h71.902c1.889,0,3.415,1.525,3.415,3.412s-1.526,3.412-3.415,3.412    H386.88z M386.88,109.334c-1.885,0-3.411-1.525-3.411-3.412c0-1.886,1.526-3.412,3.411-3.412h71.902    c1.889,0,3.415,1.526,3.415,3.412c0,1.887-1.526,3.412-3.415,3.412H386.88z M386.88,132.414c-1.885,0-3.411-1.525-3.411-3.412    c0-1.886,1.526-3.412,3.411-3.412h71.902c1.889,0,3.415,1.526,3.415,3.412c0,1.887-1.526,3.412-3.415,3.412H386.88z     M386.88,155.495c-1.885,0-3.411-1.526-3.411-3.412c0-1.887,1.526-3.412,3.411-3.412h71.902c1.889,0,3.415,1.525,3.415,3.412    c0,1.886-1.526,3.412-3.415,3.412H386.88z M386.88,178.575c-1.885,0-3.411-1.526-3.411-3.412c0-1.858,1.526-3.412,3.411-3.412    h71.902c1.889,0,3.415,1.554,3.415,3.412c0,1.886-1.526,3.412-3.415,3.412H386.88z M88.695,236.609    c-1.888,0-3.412-1.525-3.412-3.412s1.523-3.412,3.412-3.412h202.091c1.885,0,3.411,1.525,3.411,3.412s-1.526,3.412-3.411,3.412    H88.695z M88.695,251.506c-1.888,0-3.412-1.525-3.412-3.412s1.523-3.412,3.412-3.412h202.091c1.885,0,3.411,1.525,3.411,3.412    s-1.526,3.412-3.411,3.412H88.695z M88.695,266.402c-1.888,0-3.412-1.525-3.412-3.412s1.523-3.412,3.412-3.412h202.091    c1.885,0,3.411,1.525,3.411,3.412s-1.526,3.412-3.411,3.412H88.695z M88.695,190.781c-1.888,0-3.412-1.525-3.412-3.412    s1.523-3.412,3.412-3.412h96.455c1.884,0,3.411,1.525,3.411,3.412s-1.527,3.412-3.411,3.412H88.695z M88.695,205.678    c-1.888,0-3.412-1.553-3.412-3.412c0-1.886,1.523-3.412,3.412-3.412h96.455c1.884,0,3.411,1.526,3.411,3.412    c0,1.859-1.527,3.412-3.411,3.412H88.695z M37.541,447.826c-1.884,0-3.411-1.553-3.411-3.412c0-1.886,1.527-3.412,3.411-3.412    H243.71c1.888,0,3.411,1.526,3.411,3.412c0,1.859-1.523,3.412-3.411,3.412H37.541z M158.268,460.366    c-1.885,0-3.411-1.526-3.411-3.412c0-1.888,1.526-3.412,3.411-3.412h142.671c1.889,0,3.412,1.524,3.412,3.412    c0,1.886-1.523,3.412-3.412,3.412H158.268z M315.531,460.366c-1.888,0-3.41-1.526-3.41-3.412c0-1.888,1.522-3.412,3.41-3.412    h17.836c1.888,0,3.414,1.524,3.414,3.412c0,1.886-1.526,3.412-3.414,3.412H315.531z M29.413,459.978    c-1.885,0-3.411-1.526-3.411-3.412c0-1.887,1.526-3.412,3.411-3.412h67.604c1.888,0,3.411,1.525,3.411,3.412    c0,1.886-1.523,3.412-3.411,3.412H29.413z M34.74,229.785c0,1.887-1.527,3.412-3.415,3.412c-1.884,0-3.411-1.525-3.411-3.412    v-82.834c0-6.048,2.499-11.568,6.464-15.563c4.022-3.995,9.542-6.491,15.589-6.491h47.575c1.888,0,3.415,1.524,3.415,3.412    c0,1.886-1.527,3.412-3.415,3.412H49.968c-4.187,0-7.988,1.72-10.764,4.466c-2.745,2.773-4.464,6.574-4.464,10.764V229.785z     M485.999,51.634H359.667v58.006H202.905c-1.888,0-3.415,1.526-3.415,3.412v27.657H55.878c-3.661,0-6.991,1.498-9.434,3.884    c-2.411,2.441-3.91,5.771-3.91,9.432v193.271c0,3.662,1.527,6.99,3.91,9.404c2.415,2.412,5.773,3.911,9.434,3.911h268.393    c3.66,0,7.019-1.499,9.401-3.884c2.415-2.414,3.914-5.77,3.914-9.432V154.024c0-3.661-1.499-6.99-3.914-9.403    c-2.41-2.414-5.741-3.912-9.401-3.912H206.316v-24.273h153.351v89.936h126.332V51.634z" style="fill-rule:evenodd;clip-rule:evenodd;"/>

</g>

</g>

<g id="Layer_1"/>

</svg>